<svg xmlns="http://www.w3.org/2000/svg" width="816.503" height="367.796" viewBox="0 0 816.503 367.796">
  <g id="Group_1045" data-name="Group 1045" transform="translate(-165.389 -76.719)">
    <g id="Group_917" data-name="Group 917" transform="translate(165.389 134.882)">
      <path id="Path_256" data-name="Path 256" d="M261.639,91.658l673.787,2.013a29.737,29.737,0,0,1,29.647,29.737h0a29.734,29.734,0,0,1-29.737,29.737H788.952a23.487,23.487,0,0,0-23.484,23.488h0a23.487,23.487,0,0,0,23.484,23.488h94.311a29.066,29.066,0,0,1,29.067,29.063h0a29.069,29.069,0,0,1-29.067,29.067H708.6v81.677H952.727a29.162,29.162,0,0,1,29.165,29.161h0a29.162,29.162,0,0,1-29.161,29.165l-636.329.117a27.691,27.691,0,0,1-27.7-27.693h0A27.692,27.692,0,0,1,316.4,342.985h144.85V300.058h-260A35.86,35.86,0,0,1,165.389,264.2h0a35.861,35.861,0,0,1,35.857-35.861H414.719a23.191,23.191,0,0,0,23.192-23.188h0a23.189,23.189,0,0,0-23.192-23.188H383.2a38.148,38.148,0,0,1-38.146-38.146H261.561a26.08,26.08,0,0,1-26.081-26.081h0A26.078,26.078,0,0,1,261.639,91.658Z" transform="translate(-165.389 -91.658)" fill="#f7f7f7"/>
    </g>
    <g id="Group_927" data-name="Group 927" transform="translate(542.036 209.944)">
      <g id="Group_926" data-name="Group 926">
        <g id="Group_918" data-name="Group 918" transform="translate(17.266 2.921)">
          <rect id="Rectangle_10009" data-name="Rectangle 10009" width="301.478" height="216.697" rx="1" fill="#1ea592"/>
        </g>
        <g id="Group_919" data-name="Group 919" transform="translate(52.005 0.002)">
          <rect id="Rectangle_10010" data-name="Rectangle 10010" width="16.928" height="5.84" fill="#283e51"/>
        </g>
        <g id="Group_920" data-name="Group 920" transform="translate(14.347)">
          <path id="Path_257" data-name="Path 257" d="M562.722,333.474H276.228a10.42,10.42,0,0,1-10.411-10.411V121.349a10.422,10.422,0,0,1,10.411-10.411h18.1v5.84h-18.1a4.578,4.578,0,0,0-4.571,4.571V323.063a4.575,4.575,0,0,0,4.571,4.571H562.722a4.573,4.573,0,0,0,4.571-4.571h5.84A10.42,10.42,0,0,1,562.722,333.474Z" transform="translate(-265.817 -110.938)" fill="#283e51"/>
        </g>
        <g id="Group_921" data-name="Group 921" transform="translate(176.401)">
          <path id="Path_258" data-name="Path 258" d="M452.7,140.792h-5.84V121.349a4.575,4.575,0,0,0-4.571-4.571H307.441v-5.84H442.293A10.422,10.422,0,0,1,452.7,121.349Z" transform="translate(-307.441 -110.938)" fill="#283e51"/>
        </g>
        <g id="Group_922" data-name="Group 922" transform="translate(31.907 19.971)">
          <rect id="Rectangle_10011" data-name="Rectangle 10011" width="270.561" height="175.848" fill="#fff"/>
        </g>
        <g id="Group_923" data-name="Group 923" transform="translate(2.881 206.776)">
          <path id="Path_259" data-name="Path 259" d="M573.466,188.923H279.2a14.419,14.419,0,0,1-14.234-12.089l-2.1-12.786H399.261l5.217,7.491h37.687l5.641-7.491H591.484l-1.822,11.119A16.409,16.409,0,0,1,573.466,188.923Z" transform="translate(-262.872 -164.049)" fill="#fff"/>
        </g>
        <g id="Group_924" data-name="Group 924" transform="translate(0 206.305)">
          <path id="Path_260" data-name="Path 260" d="M575.607,192.193H281.345a17.276,17.276,0,0,1-17.115-14.537l-2.1-12.782,5.766-.946,2.094,12.782a11.464,11.464,0,0,0,11.353,9.644H575.607Z" transform="translate(-262.132 -163.928)" fill="#283e51"/>
        </g>
        <g id="Group_925" data-name="Group 925" transform="translate(175.635 203.857)">
          <path id="Path_261" data-name="Path 261" d="M315.238,176.631h-7.994v-5.84h5.081l5.642-7.492H435.849v5.84H320.881Z" transform="translate(-307.245 -163.299)" fill="#283e51"/>
        </g>
      </g>
    </g>
    <g id="Group_928" data-name="Group 928" transform="translate(542.036 209.944)" opacity="0.3">
      <path id="Path_262" data-name="Path 262" d="M435.2,342.588v.125h5.84V110.938h-2.511v2.92H331.067v-2.92H314.138v2.92h-9.153v-2.92h-18.1a10.422,10.422,0,0,0-10.411,10.411V317.714h-8.5l-.078-.471-2.885.471h0l-2.881.475,2.1,12.782a17.229,17.229,0,0,0,7.549,11.618H435.2Z" transform="translate(-262.132 -110.938)" fill="#283e51"/>
    </g>
    <g id="Group_945" data-name="Group 945" transform="translate(455.983 119.125)">
      <g id="Group_944" data-name="Group 944">
        <g id="Group_929" data-name="Group 929" transform="translate(2.92 2.921)">
          <path id="Path_263" data-name="Path 263" d="M492.118,407.91V103.338A14.976,14.976,0,0,0,477.14,88.361H255.76a14.979,14.979,0,0,0-14.981,14.977V407.91Z" transform="translate(-240.779 -88.361)" fill="#17ac9d"/>
        </g>
        <g id="Group_930" data-name="Group 930" transform="translate(20.634 2.921)">
          <path id="Path_264" data-name="Path 264" d="M458.428,407.91V103.338c0-8.273-5.684-14.977-12.7-14.977h-187.7c-7.012,0-12.7,6.7-12.7,14.977V407.91Z" transform="translate(-245.329 -88.361)" fill="#fff"/>
        </g>
        <g id="Group_931" data-name="Group 931" transform="translate(2.92 2.921)">
          <path id="Path_265" data-name="Path 265" d="M240.779,127.189V100.956a12.6,12.6,0,0,1,12.595-12.595H479.523a12.593,12.593,0,0,1,12.595,12.595v26.233Z" transform="translate(-240.779 -88.361)" fill="#17ac9d"/>
        </g>
        <g id="Group_932" data-name="Group 932" transform="translate(0 0.001)">
          <path id="Path_266" data-name="Path 266" d="M245.869,231.608h-5.84V103.126a15.532,15.532,0,0,1,15.519-15.515h33.373v5.84H255.548a9.685,9.685,0,0,0-9.679,9.675Z" transform="translate(-240.029 -87.611)" fill="#283e51"/>
        </g>
        <g id="Group_933" data-name="Group 933" transform="translate(92.555 0.001)">
          <path id="Path_267" data-name="Path 267" d="M428.426,410.2h-5.84V103.126a9.682,9.682,0,0,0-9.675-9.675H263.8v-5.84H412.911a15.529,15.529,0,0,1,15.515,15.515Z" transform="translate(-263.802 -87.611)" fill="#283e51"/>
        </g>
        <g id="Group_934" data-name="Group 934" transform="translate(61.08)">
          <rect id="Rectangle_10012" data-name="Rectangle 10012" width="17.265" height="5.84" fill="#283e51"/>
        </g>
        <g id="Group_935" data-name="Group 935" transform="translate(2.92 39.511)">
          <rect id="Rectangle_10013" data-name="Rectangle 10013" width="251.339" height="5.84" fill="#283e51"/>
        </g>
        <g id="Group_936" data-name="Group 936" transform="translate(31.786 21.55)">
          <rect id="Rectangle_10014" data-name="Rectangle 10014" width="5.849" height="5.84" fill="#283e51"/>
        </g>
        <g id="Group_937" data-name="Group 937" transform="translate(48.756 21.55)">
          <rect id="Rectangle_10015" data-name="Rectangle 10015" width="5.851" height="5.84" fill="#283e51"/>
        </g>
        <g id="Group_938" data-name="Group 938" transform="translate(65.728 21.55)">
          <rect id="Rectangle_10016" data-name="Rectangle 10016" width="5.852" height="5.84" fill="#283e51"/>
        </g>
        <g id="Group_939" data-name="Group 939" transform="translate(36.591 71.425)">
          <rect id="Rectangle_10017" data-name="Rectangle 10017" width="183.998" height="72.576" fill="#17ac9d"/>
        </g>
        <g id="Group_940" data-name="Group 940" transform="translate(36.61 190.083)">
          <rect id="Rectangle_10018" data-name="Rectangle 10018" width="55.945" height="72.575" fill="#eaeaea"/>
        </g>
        <g id="Group_941" data-name="Group 941" transform="translate(100.637 190.083)">
          <rect id="Rectangle_10019" data-name="Rectangle 10019" width="55.944" height="72.575" fill="#eaeaea"/>
        </g>
        <g id="Group_942" data-name="Group 942" transform="translate(164.663 190.083)">
          <rect id="Rectangle_10020" data-name="Rectangle 10020" width="55.944" height="72.575" fill="#eaeaea"/>
        </g>
        <g id="Group_943" data-name="Group 943" transform="translate(89.491 164.041)">
          <rect id="Rectangle_10021" data-name="Rectangle 10021" width="78.236" height="5.84" fill="#283e51"/>
        </g>
      </g>
    </g>
    <g id="Group_962" data-name="Group 962" transform="translate(733.087 244.77)">
      <g id="Group_954" data-name="Group 954" transform="translate(73.451)">
        <g id="Group_946" data-name="Group 946" transform="translate(54.181 108.505)">
          <rect id="Rectangle_10022" data-name="Rectangle 10022" width="5.84" height="22.447" fill="#283e51"/>
        </g>
        <g id="Group_947" data-name="Group 947" transform="translate(2.92 2.916)">
          <path id="Path_268" data-name="Path 268" d="M385,120.632a54.183,54.183,0,1,0,54.183,54.183A54.183,54.183,0,0,0,385,120.632Zm0,95.346a41.164,41.164,0,1,1,41.164-41.164A41.163,41.163,0,0,1,385,215.978Z" transform="translate(-330.82 -120.632)" fill="#eaeaea"/>
        </g>
        <g id="Group_948" data-name="Group 948">
          <path id="Path_269" data-name="Path 269" d="M387.173,234.085a57.1,57.1,0,1,1,57.1-57.1A57.164,57.164,0,0,1,387.173,234.085Zm0-108.362a51.261,51.261,0,1,0,51.263,51.259A51.317,51.317,0,0,0,387.173,125.723Z" transform="translate(-330.07 -119.883)" fill="#283e51"/>
        </g>
        <g id="Group_949" data-name="Group 949" transform="translate(51.932 19.673)">
          <path id="Path_270" data-name="Path 270" d="M383.541,165.072H377.7a34.34,34.34,0,0,0-34.292-34.3v-5.84A40.183,40.183,0,0,1,383.541,165.072Z" transform="translate(-343.409 -124.936)" fill="#283e51"/>
        </g>
        <g id="Group_950" data-name="Group 950" transform="translate(46.399 124.339)">
          <rect id="Rectangle_10023" data-name="Rectangle 10023" width="21.405" height="71.752" fill="#17ac9d"/>
        </g>
        <g id="Group_951" data-name="Group 951" transform="translate(43.48 121.42)">
          <path id="Path_271" data-name="Path 271" d="M360.085,228.659H349.632a8.4,8.4,0,0,1-8.394-8.394v-69.2h27.245v38.072h-5.84V156.91H347.078v63.355a2.556,2.556,0,0,0,2.554,2.554h10.453a2.559,2.559,0,0,0,2.558-2.554V210.236h5.84v10.029A8.406,8.406,0,0,1,360.085,228.659Z" transform="translate(-341.238 -151.07)" fill="#283e51"/>
        </g>
        <g id="Group_952" data-name="Group 952" transform="translate(64.884 164.925)">
          <rect id="Rectangle_10024" data-name="Rectangle 10024" width="5.84" height="11.241" fill="#283e51"/>
        </g>
        <g id="Group_953" data-name="Group 953" transform="translate(45.878 136.824)">
          <rect id="Rectangle_10025" data-name="Rectangle 10025" width="22.449" height="5.84" fill="#283e51"/>
        </g>
      </g>
      <g id="Group_955" data-name="Group 955" transform="translate(41.003 16.893)">
        <rect id="Rectangle_10026" data-name="Rectangle 10026" width="33.832" height="5.84" fill="#283e51"/>
      </g>
      <g id="Group_956" data-name="Group 956" transform="translate(41.003 35.5)">
        <rect id="Rectangle_10027" data-name="Rectangle 10027" width="26.854" height="5.84" fill="#283e51"/>
      </g>
      <g id="Group_957" data-name="Group 957" transform="translate(0.437 54.108)">
        <rect id="Rectangle_10028" data-name="Rectangle 10028" width="67.42" height="5.84" fill="#283e51"/>
      </g>
      <g id="Group_958" data-name="Group 958" transform="translate(0 72.715)">
        <rect id="Rectangle_10029" data-name="Rectangle 10029" width="67.857" height="5.84" fill="#283e51"/>
      </g>
      <g id="Group_959" data-name="Group 959" transform="translate(0 91.322)">
        <rect id="Rectangle_10030" data-name="Rectangle 10030" width="74.835" height="5.84" fill="#283e51"/>
      </g>
      <g id="Group_960" data-name="Group 960" transform="translate(0 109.929)">
        <rect id="Rectangle_10031" data-name="Rectangle 10031" width="98.473" height="5.84" fill="#283e51"/>
      </g>
      <g id="Group_961" data-name="Group 961" transform="translate(0.935 11.579)">
        <path id="Path_272" data-name="Path 272" d="M338.323,154.759l-2.963-6.891H321.987l-2.967,6.891h-7.576l13.782-31.9h6.891l13.786,31.9Zm-9.628-22.41-4.014,9.266h7.985Z" transform="translate(-311.444 -122.857)" fill="#283e51"/>
      </g>
    </g>
    <g id="Group_982" data-name="Group 982" transform="translate(585.706 335.44)">
      <g id="Group_964" data-name="Group 964" transform="translate(2.921 14.448)">
        <g id="Group_963" data-name="Group 963">
          <path id="Path_273" data-name="Path 273" d="M274.4,191.523a19.571,19.571,0,0,1-.28-4.263c.012-.343.023-.751.023-1.324a50.416,50.416,0,0,1,14.8-35.736c.346-.347.588-.6.786-.814a19.315,19.315,0,0,1,2.807-2.5l8.265,10.89a6.546,6.546,0,0,0-1.137,1c-.265.284-.588.623-1.051,1.09A36.738,36.738,0,0,0,287.8,185.936c0,.736-.016,1.269-.027,1.709a6.851,6.851,0,0,0,.125,1.779Z" transform="translate(-274.099 -146.883)" fill="#1ea592"/>
        </g>
      </g>
      <g id="Group_966" data-name="Group 966" transform="translate(5.04 63.998)">
        <g id="Group_965" data-name="Group 965">
          <path id="Path_274" data-name="Path 274" d="M323.1,199.656a50.518,50.518,0,0,1-48.46-36.161l13.1-3.885a37.256,37.256,0,0,0,1.382,3.858,37.066,37.066,0,0,0,19.63,19.626,36.814,36.814,0,0,0,40.416-7.907,36.738,36.738,0,0,0,7.907-11.723l12.587,5.326A50.5,50.5,0,0,1,323.1,199.656Z" transform="translate(-274.643 -159.61)" fill="#eaeaea"/>
        </g>
      </g>
      <g id="Group_968" data-name="Group 968" transform="translate(29.252 2.978)">
        <g id="Group_967" data-name="Group 967">
          <path id="Path_275" data-name="Path 275" d="M354.562,204.929l-13.373-2.823a37.173,37.173,0,0,0,.794-7.646,36.932,36.932,0,0,0-22.523-33.977,37.205,37.205,0,0,0-28.7,0c-.623.265-1.071.44-1.445.584a6.409,6.409,0,0,0-1.417.712l-7.035-11.719a19.437,19.437,0,0,1,3.477-1.725c.28-.109.623-.241,1.094-.44a50.862,50.862,0,0,1,39.349,0,50.515,50.515,0,0,1,30.87,46.564A50.946,50.946,0,0,1,354.562,204.929Z" transform="translate(-280.862 -143.937)" fill="#17ac9d"/>
        </g>
      </g>
      <g id="Group_970" data-name="Group 970" transform="translate(0 12.212)">
        <g id="Group_969" data-name="Group 969">
          <path id="Path_276" data-name="Path 276" d="M277.948,195.871a4.533,4.533,0,0,1-4.508-4.111,21.437,21.437,0,0,1-.074-2.92c.012-.331.023-.712.023-1.242a53.168,53.168,0,0,1,8.518-29,54.336,54.336,0,0,1,7.28-8.943l.452-.467a23.739,23.739,0,0,1,1.814-1.775,4.633,4.633,0,0,1,3.45-1.082,4.546,4.546,0,0,1,3.122,1.76l6.381,8.406a4.531,4.531,0,0,1-.444,5.968l-1.117,1.125a33.837,33.837,0,0,0-9.951,24.01l-.019,1.565a5.434,5.434,0,0,0,.086,1.476l.448,2.885-14.775,2.293A4.476,4.476,0,0,1,277.948,195.871ZM294.265,152.8c-.078.082-.16.167-.241.257l-.681.7a48.633,48.633,0,0,0-6.509,7.977,47.424,47.424,0,0,0-7.6,25.863c0,.615-.012,1.055-.027,1.421-.008.28-.012.541-.016.8l7.853-1.219.016-1a39.655,39.655,0,0,1,11.66-28.137l.346-.35Z" transform="translate(-273.349 -146.309)" fill="#283e51"/>
        </g>
      </g>
      <g id="Group_972" data-name="Group 972" transform="translate(2.471 61.405)">
        <g id="Group_971" data-name="Group 971">
          <path id="Path_277" data-name="Path 277" d="M325.012,204.5a53.521,53.521,0,0,1-49.254-32.645c-.576-1.367-1.1-2.764-1.561-4.17a4.261,4.261,0,0,1,.284-3.329,4.341,4.341,0,0,1,2.609-2.141l10.446-3.1a4.291,4.291,0,0,1,5.291,2.764c.273.806.572,1.6.9,2.379a34.175,34.175,0,0,0,24.415,20.07,32.679,32.679,0,0,0,13.724.008,34.243,34.243,0,0,0,23.893-18.879,4.385,4.385,0,0,1,5.688-2.2l9.862,4.17a4.426,4.426,0,0,1,2.309,5.9A53.433,53.433,0,0,1,325.012,204.5Zm-44.745-37.138q.409,1.121.872,2.219a47.653,47.653,0,0,0,86.532,2.651l-7.23-3.056a40.072,40.072,0,0,1-27.331,20.864,38.343,38.343,0,0,1-16.2,0,40.03,40.03,0,0,1-28.557-23.5c-.2-.463-.382-.93-.561-1.4Z" transform="translate(-273.983 -158.944)" fill="#283e51"/>
        </g>
      </g>
      <g id="Group_975" data-name="Group 975" transform="translate(26.887)">
        <g id="Group_973" data-name="Group 973">
          <path id="Path_278" data-name="Path 278" d="M355.159,209.786a4.306,4.306,0,0,1-.892-.094l-10.547-2.223a4.364,4.364,0,0,1-3.391-5.022,33.959,33.959,0,0,0-46.676-37.06l-1.666.7a4.372,4.372,0,0,1-5.525-1.732l-5.587-9.313a4.364,4.364,0,0,1,1.67-6.089,21.013,21.013,0,0,1,2.484-1.121l.678-.269a57.15,57.15,0,0,1,20.128-4.392l.16,5.836a51.372,51.372,0,0,0-18.077,3.963l-.782.308c-.144.058-.276.109-.409.163l4.08,6.8.148-.062.417-.171a40.019,40.019,0,0,1,30.983,0A39.825,39.825,0,0,1,346.3,202.042l7.678,1.62a48.312,48.312,0,0,0,.514-6.988A47.668,47.668,0,0,0,325.419,152.8l2.274-5.38a53.417,53.417,0,0,1,32.637,49.25,54.031,54.031,0,0,1-.853,9.531,4.323,4.323,0,0,1-1.853,2.834A4.421,4.421,0,0,1,355.159,209.786Z" transform="translate(-280.255 -143.172)" fill="#283e51"/>
        </g>
        <g id="Group_974" data-name="Group 974" transform="translate(34.948 0.821)">
          <path id="Path_279" data-name="Path 279" d="M295.083,150.589a50.051,50.051,0,0,0-5.852-1.468l1.086-5.739a56.429,56.429,0,0,1,6.521,1.639Z" transform="translate(-289.231 -143.383)" fill="#283e51"/>
        </g>
      </g>
      <g id="Group_976" data-name="Group 976" transform="translate(29.624 52.065)">
        <rect id="Rectangle_10032" data-name="Rectangle 10032" width="10.451" height="20.399" fill="#eaeaea"/>
      </g>
      <g id="Group_977" data-name="Group 977" transform="translate(47.324 44.017)">
        <rect id="Rectangle_10033" data-name="Rectangle 10033" width="10.452" height="28.447" fill="#eaeaea"/>
      </g>
      <g id="Group_978" data-name="Group 978" transform="translate(65.024 32.257)">
        <rect id="Rectangle_10034" data-name="Rectangle 10034" width="10.451" height="40.207" fill="#eaeaea"/>
      </g>
      <g id="Group_979" data-name="Group 979" transform="translate(26.702 49.145)">
        <path id="Path_280" data-name="Path 280" d="M296.5,182.036H280.207V155.8H296.5Zm-10.453-5.84h4.613V161.635h-4.613Z" transform="translate(-280.207 -155.795)" fill="#283e51"/>
      </g>
      <g id="Group_980" data-name="Group 980" transform="translate(44.405 41.097)">
        <path id="Path_281" data-name="Path 281" d="M301.043,188.016H284.754V153.728h16.289Zm-10.45-5.84h4.61V159.568h-4.61Z" transform="translate(-284.754 -153.728)" fill="#283e51"/>
      </g>
      <g id="Group_981" data-name="Group 981" transform="translate(62.103 29.336)">
        <path id="Path_282" data-name="Path 282" d="M305.59,196.757H289.3v-46.05h16.29Zm-10.45-5.84h4.61v-34.37h-4.61Z" transform="translate(-289.3 -150.707)" fill="#283e51"/>
      </g>
    </g>
    <g id="Group_983" data-name="Group 983" transform="translate(458.903 268.491)" opacity="0.3">
      <path id="Path_283" data-name="Path 283" d="M295.694,299.079h2.924a78.483,78.483,0,0,0-13.292-43.764h8.515v2.92h3.59a12.233,12.233,0,0,0,12.217-12.217V138.193a12.233,12.233,0,0,0-12.217-12.217H269.788v2.92h-10.57v-2.92H240.779v173.1h54.915Z" transform="translate(-240.779 -125.976)" fill="#283e51"/>
    </g>
    <g id="Group_1017" data-name="Group 1017" transform="translate(339.683 268.491)">
      <g id="Group_984" data-name="Group 984" transform="translate(2.918 2.92)">
        <rect id="Rectangle_10035" data-name="Rectangle 10035" width="174.463" height="126.417" rx="2.024" fill="#fff"/>
      </g>
      <g id="Group_985" data-name="Group 985" transform="translate(2.916 2.92)">
        <path id="Path_284" data-name="Path 284" d="M210.906,153.679V135.47a8.747,8.747,0,0,1,8.744-8.744H376.627a8.746,8.746,0,0,1,8.744,8.744v18.209Z" transform="translate(-210.906 -126.726)" fill="#eaeaea"/>
      </g>
      <g id="Group_986" data-name="Group 986" transform="translate(2.919 27.424)">
        <rect id="Rectangle_10036" data-name="Rectangle 10036" width="174.462" height="5.84" fill="#283e51"/>
      </g>
      <g id="Group_987" data-name="Group 987" transform="translate(22.953 14.959)">
        <rect id="Rectangle_10037" data-name="Rectangle 10037" width="6.981" height="5.84" fill="#283e51"/>
      </g>
      <g id="Group_988" data-name="Group 988" transform="translate(39.114 14.959)">
        <rect id="Rectangle_10038" data-name="Rectangle 10038" width="6.983" height="5.84" fill="#283e51"/>
      </g>
      <g id="Group_989" data-name="Group 989" transform="translate(55.276 14.959)">
        <rect id="Rectangle_10039" data-name="Rectangle 10039" width="6.981" height="5.84" fill="#283e51"/>
      </g>
      <g id="Group_990" data-name="Group 990" transform="translate(140.442)">
        <path id="Path_285" data-name="Path 285" d="M273.872,258.235h-3.59v-5.84h3.59a6.385,6.385,0,0,0,6.377-6.377V138.193a6.385,6.385,0,0,0-6.377-6.377H246.23v-5.84h27.642a12.232,12.232,0,0,1,12.217,12.217V246.018A12.232,12.232,0,0,1,273.872,258.235Z" transform="translate(-246.23 -125.976)" fill="#283e51"/>
      </g>
      <g id="Group_991" data-name="Group 991" transform="translate(107.828)">
        <rect id="Rectangle_10040" data-name="Rectangle 10040" width="22.046" height="5.84" fill="#283e51"/>
      </g>
      <g id="Group_992" data-name="Group 992">
        <path id="Path_286" data-name="Path 286" d="M225.111,258.235H222.37a12.229,12.229,0,0,1-12.213-12.217V138.193a12.229,12.229,0,0,1,12.213-12.217h91.278v5.84H222.37A6.382,6.382,0,0,0,216,138.193V246.018a6.382,6.382,0,0,0,6.373,6.377h2.741Z" transform="translate(-210.157 -125.976)" fill="#283e51"/>
      </g>
      <g id="Group_993" data-name="Group 993" transform="translate(14.277 97.067)">
        <path id="Path_287" data-name="Path 287" d="M365.9,226.944a76.036,76.036,0,0,0-152.072,0Z" transform="translate(-213.824 -150.908)" fill="#1ea592"/>
      </g>
      <g id="Group_994" data-name="Group 994" transform="translate(11.357 94.147)">
        <path id="Path_288" data-name="Path 288" d="M370.989,229.114h-5.84a73.118,73.118,0,0,0-146.235,0h-5.84a78.958,78.958,0,0,1,157.915,0Z" transform="translate(-213.074 -150.158)" fill="#283e51"/>
      </g>
      <g id="Group_995" data-name="Group 995" transform="translate(25.933 108.724)">
        <path id="Path_289" data-name="Path 289" d="M345.577,218.281a64.379,64.379,0,0,0-128.759,0Z" transform="translate(-216.818 -153.902)" fill="#eaeaea"/>
      </g>
      <g id="Group_996" data-name="Group 996" transform="translate(55.269 138.06)">
        <path id="Path_290" data-name="Path 290" d="M294.44,196.48a35.043,35.043,0,1,0-70.087,0Z" transform="translate(-224.353 -161.437)" fill="#fff"/>
      </g>
      <g id="Group_997" data-name="Group 997" transform="translate(82.323 165.114)">
        <path id="Path_291" data-name="Path 291" d="M247.28,176.375a7.989,7.989,0,0,0-15.978,0Z" transform="translate(-231.302 -168.386)" fill="#1ea592"/>
      </g>
      <g id="Group_998" data-name="Group 998" transform="translate(23.013 105.804)">
        <path id="Path_292" data-name="Path 292" d="M350.667,220.451h-5.84a61.459,61.459,0,0,0-122.919,0h-5.84a67.3,67.3,0,0,1,134.6,0Z" transform="translate(-216.068 -153.152)" fill="#283e51"/>
      </g>
      <g id="Group_999" data-name="Group 999" transform="translate(87.24 107.694)">
        <rect id="Rectangle_10041" data-name="Rectangle 10041" width="12.32" height="5.84" transform="translate(0 12.319) rotate(-89.293)" fill="#283e51"/>
      </g>
      <g id="Group_1000" data-name="Group 1000" transform="translate(111.32 115.162)">
        <rect id="Rectangle_10042" data-name="Rectangle 10042" width="11.872" height="5.843" transform="translate(0 10.206) rotate(-59.28)" fill="#283e51"/>
      </g>
      <g id="Group_1001" data-name="Group 1001" transform="translate(133.376 138.384)">
        <rect id="Rectangle_10043" data-name="Rectangle 10043" width="12.921" height="5.84" transform="translate(0 6.317) rotate(-29.268)" fill="#283e51"/>
      </g>
      <g id="Group_1002" data-name="Group 1002" transform="translate(33.108 138.326)">
        <rect id="Rectangle_10044" data-name="Rectangle 10044" width="5.841" height="12.921" transform="translate(0 5.018) rotate(-59.212)" fill="#283e51"/>
      </g>
      <g id="Group_1003" data-name="Group 1003" transform="translate(58.265 115.178)">
        <rect id="Rectangle_10045" data-name="Rectangle 10045" width="5.84" height="11.873" transform="matrix(0.873, -0.488, 0.488, 0.873, 0, 2.849)" fill="#283e51"/>
      </g>
      <g id="Group_1004" data-name="Group 1004" transform="translate(90.389 140.132)">
        <path id="Path_293" data-name="Path 293" d="M233.374,188.89l29.17-26.921,1.613,1.6L237.523,193Z" transform="translate(-233.374 -161.969)" fill="#1ea592"/>
      </g>
      <g id="Group_1008" data-name="Group 1008" transform="translate(71.831 70.795)">
        <g id="Group_1005" data-name="Group 1005" transform="translate(15.561 12.161)">
          <rect id="Rectangle_10046" data-name="Rectangle 10046" width="5.84" height="14.109" fill="#283e51"/>
        </g>
        <g id="Group_1006" data-name="Group 1006" transform="translate(2.92 2.917)">
          <rect id="Rectangle_10047" data-name="Rectangle 10047" width="30.797" height="15.209" rx="0.803" fill="#1ea592"/>
        </g>
        <g id="Group_1007" data-name="Group 1007">
          <path id="Path_294" data-name="Path 294" d="M259.2,165.207H234.653a6.055,6.055,0,0,1-6.046-6.046V150.2a6.051,6.051,0,0,1,6.046-6.042H259.2a6.049,6.049,0,0,1,6.046,6.042v8.958A6.052,6.052,0,0,1,259.2,165.207ZM234.653,150l-.206,9.161,24.75.206a.205.205,0,0,0,.206-.206V150.2Z" transform="translate(-228.607 -144.16)" fill="#283e51"/>
        </g>
      </g>
      <g id="Group_1012" data-name="Group 1012" transform="translate(122.254 83.868)">
        <g id="Group_1009" data-name="Group 1009" transform="translate(6.467 12.443)">
          <rect id="Rectangle_10048" data-name="Rectangle 10048" width="10.839" height="5.839" transform="translate(0 9.386) rotate(-59.995)" fill="#283e51"/>
        </g>
        <g id="Group_1010" data-name="Group 1010" transform="translate(1.773 1.778)">
          <rect id="Rectangle_10049" data-name="Rectangle 10049" width="23.655" height="11.682" rx="0.803" transform="translate(5.843 0) rotate(30.01)" fill="#1ea592"/>
        </g>
        <g id="Group_1011" data-name="Group 1011">
          <path id="Path_295" data-name="Path 295" d="M262.663,173.016a6.023,6.023,0,0,1-3.017-.81l-15.067-8.7a6.059,6.059,0,0,1-2.211-8.262l2.717-4.7a6.042,6.042,0,0,1,8.262-2.211l15.063,8.7a6.055,6.055,0,0,1,2.215,8.262l-2.718,4.7A6.042,6.042,0,0,1,262.663,173.016Zm-.1-5.867a.208.208,0,0,0,.284-.074l2.718-4.7-15.145-8.986-3,4.773Z" transform="translate(-241.558 -147.518)" fill="#283e51"/>
        </g>
      </g>
      <g id="Group_1016" data-name="Group 1016" transform="translate(27.332 83.874)">
        <g id="Group_1013" data-name="Group 1013" transform="translate(12.934 12.437)">
          <rect id="Rectangle_10050" data-name="Rectangle 10050" width="5.839" height="10.839" transform="matrix(0.866, -0.5, 0.5, 0.866, 0, 2.921)" fill="#283e51"/>
        </g>
        <g id="Group_1014" data-name="Group 1014" transform="translate(1.779 1.772)">
          <rect id="Rectangle_10051" data-name="Rectangle 10051" width="23.655" height="11.682" rx="0.803" transform="matrix(-0.866, 0.5, -0.5, -0.866, 26.327, 10.116)" fill="#1ea592"/>
        </g>
        <g id="Group_1015" data-name="Group 1015">
          <path id="Path_296" data-name="Path 296" d="M225.952,173.015a6.046,6.046,0,0,1-5.244-3.025l-2.718-4.7a6.051,6.051,0,0,1,2.211-8.262l15.071-8.7a6.056,6.056,0,0,1,8.258,2.207l2.717,4.7a6.039,6.039,0,0,1-2.207,8.258L228.965,172.2A6.006,6.006,0,0,1,225.952,173.015Zm12.525-19.556-15.355,8.628,2.644,4.983.28.074,15.071-8.7Z" transform="translate(-217.177 -147.519)" fill="#283e51"/>
        </g>
      </g>
    </g>
    <g id="Group_1018" data-name="Group 1018" transform="translate(287.805 438.674)">
      <rect id="Rectangle_10052" data-name="Rectangle 10052" width="637.804" height="5.84" fill="#283e51"/>
    </g>
    <g id="Group_1019" data-name="Group 1019" transform="translate(270.042 438.674)">
      <rect id="Rectangle_10053" data-name="Rectangle 10053" width="10.665" height="5.84" fill="#283e51"/>
    </g>
    <g id="Group_1020" data-name="Group 1020" transform="translate(931.692 438.674)">
      <rect id="Rectangle_10054" data-name="Rectangle 10054" width="23.552" height="5.84" transform="translate(0)" fill="#283e51"/>
    </g>
    <g id="Group_1023" data-name="Group 1023" transform="translate(758.592 121.045)">
      <g id="Group_1021" data-name="Group 1021" transform="translate(0 8.32)">
        <path id="Path_297" data-name="Path 297" d="M337.315,96.081h-16.64a2.92,2.92,0,0,1,0-5.84h16.64a2.92,2.92,0,1,1,0,5.84Z" transform="translate(-317.755 -90.241)" fill="#283e51"/>
      </g>
      <g id="Group_1022" data-name="Group 1022" transform="translate(8.316)">
        <path id="Path_298" data-name="Path 298" d="M322.811,110.584a2.921,2.921,0,0,1-2.92-2.92V91.024a2.92,2.92,0,1,1,5.84,0v16.64A2.919,2.919,0,0,1,322.811,110.584Z" transform="translate(-319.891 -88.104)" fill="#283e51"/>
      </g>
    </g>
    <g id="Group_1026" data-name="Group 1026" transform="translate(258.804 232.054)">
      <g id="Group_1024" data-name="Group 1024" transform="translate(0 8.32)">
        <path id="Path_299" data-name="Path 299" d="M208.943,124.594H192.3a2.92,2.92,0,0,1,0-5.84h16.64a2.92,2.92,0,1,1,0,5.84Z" transform="translate(-189.383 -118.754)" fill="#283e51"/>
      </g>
      <g id="Group_1025" data-name="Group 1025" transform="translate(8.316)">
        <path id="Path_300" data-name="Path 300" d="M194.439,139.1a2.921,2.921,0,0,1-2.92-2.92v-16.64a2.92,2.92,0,0,1,5.84,0v16.64A2.921,2.921,0,0,1,194.439,139.1Z" transform="translate(-191.519 -116.617)" fill="#283e51"/>
      </g>
    </g>
    <g id="Group_1029" data-name="Group 1029" transform="translate(400.474 86.875)">
      <g id="Group_1027" data-name="Group 1027">
        <path id="Path_301" data-name="Path 301" d="M228.69,96.932a2.918,2.918,0,0,1-2.063-4.983l11.766-11.765a2.921,2.921,0,1,1,4.131,4.131L230.758,96.079A2.925,2.925,0,0,1,228.69,96.932Z" transform="translate(-225.771 -79.327)" fill="#283e51"/>
      </g>
      <g id="Group_1028" data-name="Group 1028">
        <path id="Path_302" data-name="Path 302" d="M240.456,96.932a2.916,2.916,0,0,1-2.063-.853L226.627,84.314a2.921,2.921,0,0,1,4.131-4.131l11.766,11.765a2.918,2.918,0,0,1-2.067,4.983Z" transform="translate(-225.771 -79.327)" fill="#283e51"/>
      </g>
    </g>
    <g id="Group_1032" data-name="Group 1032" transform="translate(934.667 333.401)">
      <g id="Group_1030" data-name="Group 1030" transform="translate(0)">
        <path id="Path_303" data-name="Path 303" d="M365.9,160.253a2.918,2.918,0,0,1-2.063-4.983L375.6,143.5a2.92,2.92,0,0,1,4.127,4.131L367.963,159.4A2.909,2.909,0,0,1,365.9,160.253Z" transform="translate(-362.98 -142.648)" fill="#283e51"/>
      </g>
      <g id="Group_1031" data-name="Group 1031" transform="translate(0)">
        <path id="Path_304" data-name="Path 304" d="M377.665,160.253a2.91,2.91,0,0,1-2.064-.853l-11.765-11.766a2.92,2.92,0,0,1,4.127-4.131l11.766,11.766a2.918,2.918,0,0,1-2.063,4.983Z" transform="translate(-362.98 -142.648)" fill="#283e51"/>
      </g>
    </g>
    <g id="Group_1033" data-name="Group 1033" transform="translate(443.011 92.758)">
      <rect id="Rectangle_10055" data-name="Rectangle 10055" width="67.726" height="5.84" fill="#283e51"/>
    </g>
    <g id="Group_1034" data-name="Group 1034" transform="translate(496.614 76.719)">
      <rect id="Rectangle_10056" data-name="Rectangle 10056" width="179.977" height="5.84" fill="#283e51"/>
    </g>
    <g id="Group_1035" data-name="Group 1035" transform="translate(244.58 363.343)">
      <rect id="Rectangle_10057" data-name="Rectangle 10057" width="84.55" height="5.84" fill="#283e51"/>
    </g>
    <g id="Group_1036" data-name="Group 1036" transform="translate(867.685 209.946)">
      <rect id="Rectangle_10058" data-name="Rectangle 10058" width="67.997" height="5.84" transform="translate(0)" fill="#283e51"/>
    </g>
    <g id="Group_1037" data-name="Group 1037" transform="translate(943.469 209.946)">
      <rect id="Rectangle_10059" data-name="Rectangle 10059" width="11.775" height="5.84" transform="translate(0)" fill="#283e51"/>
    </g>
    <g id="Group_1038" data-name="Group 1038" transform="translate(516.577 92.758)">
      <rect id="Rectangle_10060" data-name="Rectangle 10060" width="13.9" height="5.84" fill="#283e51"/>
    </g>
    <g id="Group_1039" data-name="Group 1039" transform="translate(298.867 240.373)">
      <rect id="Rectangle_10061" data-name="Rectangle 10061" width="67.727" height="5.84" fill="#283e51"/>
    </g>
    <g id="Group_1040" data-name="Group 1040" transform="translate(372.435 240.373)">
      <rect id="Rectangle_10062" data-name="Rectangle 10062" width="13.9" height="5.84" fill="#283e51"/>
    </g>
    <g id="Group_1041" data-name="Group 1041" transform="translate(724.947 98.079)">
      <path id="Path_305" data-name="Path 305" d="M317.468,86.382a4.177,4.177,0,1,1-4.178-4.177A4.178,4.178,0,0,1,317.468,86.382Z" transform="translate(-309.113 -82.205)" fill="#283e51"/>
    </g>
    <g id="Group_1042" data-name="Group 1042" transform="translate(316.857 139.418)">
      <path id="Path_306" data-name="Path 306" d="M212.649,97a4.177,4.177,0,1,1-4.177-4.178A4.18,4.18,0,0,1,212.649,97Z" transform="translate(-204.294 -92.823)" fill="#283e51"/>
    </g>
    <g id="Group_1043" data-name="Group 1043" transform="translate(805.281 186.37)">
      <path id="Path_307" data-name="Path 307" d="M338.1,109.061a4.177,4.177,0,1,1-4.177-4.177A4.178,4.178,0,0,1,338.1,109.061Z" transform="translate(-329.747 -104.883)" fill="#283e51"/>
    </g>
    <g id="Group_1044" data-name="Group 1044" transform="translate(931.505 263.189)">
      <path id="Path_308" data-name="Path 308" d="M370.523,128.791a4.178,4.178,0,1,1-4.177-4.178A4.177,4.177,0,0,1,370.523,128.791Z" transform="translate(-362.168 -124.614)" fill="#283e51"/>
    </g>
  </g>
</svg>
